# xmcd
#
# Track frame offsets: 
#        150
#        23431
#        37857
#        51295
#        100025
#        117605
#        152109
#        179130
#        197847
#        237322
#        258805
#        286115
#
# Disc length: 4655 seconds
#
# Revision: 0
# Processed by: cddbd v1.5.1PL0 Copyright (c) Steve Scherf et al.
# Submitted via: ExactAudioCopy v0.95a5
#
DISCID=9d122d0c
DTITLE=Prince - Tweakin' Vol. 8--Something In The Water
DYEAR=1900
DGENRE=
TTITLE0=Turn It Up
TTITLE1=Tick Tick Bang
TTITLE2=Broken
TTITLE3=Purple Music
TTITLE4=Moonbeam Levels
TTITLE5=Extraloveable
TTITLE6=Delirious
TTITLE7=Something In The Water (Does Not Compute)
TTITLE8=Possessed
TTITLE9=Wet Dream Cousin
TTITLE10=The Beautiful Ones
TTITLE11=Computer Blue
EXTD=
EXTT0=
EXTT1=
EXTT2=
EXTT3=
EXTT4=
EXTT5=
EXTT6=
EXTT7=
EXTT8=
EXTT9=
EXTT10=
EXTT11=
PLAYORDER=
